<svg width="42" height="42" viewBox="0 0 42 42" fill="none" xmlns="http://www.w3.org/2000/svg">
<path d="M21.0304 41.3456C26.5508 41.3456 31.1789 39.5241 34.5617 36.4015L27.9262 31.2529C26.1047 32.4796 23.7813 33.2231 21.0304 33.2231C15.7146 33.2231 11.1979 29.6358 9.58087 24.8032H2.77805V30.0819C6.14228 36.7547 13.038 41.3456 21.0304 41.3456Z" fill="#34A853"/>
<path d="M40.6583 21.3647C40.6583 19.9149 40.5281 18.5209 40.2865 17.1826H21.0304V25.1006H32.0339C31.5506 27.6471 30.1009 29.8031 27.9262 31.2529V36.4015H34.5617C38.4278 32.8328 40.6583 27.5913 40.6583 21.3647Z" fill="#4285F4"/>
<path d="M9.58087 24.7847C9.17195 23.5579 8.93032 22.2568 8.93032 20.9C8.93032 19.5431 9.17195 18.242 9.58087 17.0153V11.7366H2.77804C1.38402 14.4875 0.584778 17.5915 0.584778 20.9C0.584778 24.2085 1.38402 27.3125 2.77804 30.0634L8.07532 25.937L9.58087 24.7847Z" fill="#FBBC05"/>
<path d="M21.0304 8.59543C24.0415 8.59543 26.718 9.6363 28.8555 11.6437L34.7104 5.78879C31.1603 2.48032 26.5508 0.454338 21.0304 0.454338C13.038 0.454338 6.14228 5.04532 2.77805 11.7366L9.58087 17.0153C11.1979 12.1827 15.7146 8.59543 21.0304 8.59543Z" fill="#EA4335"/>
</svg>
