<svg width="42" height="42" viewBox="0 0 42 42" fill="none" xmlns="http://www.w3.org/2000/svg">
<path d="M21.2717 41.3456C32.5636 41.3456 41.7174 32.1918 41.7174 20.9C41.7174 9.60818 32.5636 0.454346 21.2717 0.454346C9.97991 0.454346 0.82608 9.60818 0.82608 20.9C0.82608 32.1918 9.97991 41.3456 21.2717 41.3456Z" fill="url(#paint0_linear_648_3991)"/>
<path fill-rule="evenodd" clip-rule="evenodd" d="M10.081 20.6841C16.0413 18.0873 20.0158 16.3753 22.0044 15.5482C27.6824 13.1865 28.8622 12.7763 29.6312 12.7627C29.8003 12.7598 30.1785 12.8017 30.4235 13.0004C30.6303 13.1683 30.6872 13.395 30.7145 13.5541C30.7417 13.7133 30.7756 14.0758 30.7487 14.359C30.441 17.5919 29.1096 25.4374 28.4323 29.0584C28.1457 30.5906 27.5813 31.1043 27.035 31.1546C25.8477 31.2638 24.9461 30.3699 23.7961 29.6161C21.9966 28.4365 20.98 27.7022 19.2333 26.5511C17.2147 25.2209 18.5233 24.4898 19.6737 23.2949C19.9748 22.9822 25.2061 18.2239 25.3074 17.7922C25.32 17.7382 25.3318 17.537 25.2122 17.4308C25.0927 17.3245 24.9162 17.3608 24.7889 17.3897C24.6084 17.4307 21.7337 19.3308 16.1648 23.0899C15.3488 23.6502 14.6097 23.9232 13.9476 23.9089C13.2175 23.8932 11.8133 23.4962 10.7694 23.1568C9.48895 22.7406 8.47131 22.5206 8.55992 21.8137C8.60608 21.4455 9.11309 21.069 10.081 20.6841Z" fill="white"/>
<defs>
<linearGradient id="paint0_linear_648_3991" x1="21.2717" y1="0.454346" x2="21.2717" y2="41.0424" gradientUnits="userSpaceOnUse">
<stop stop-color="#2AABEE"/>
<stop offset="1" stop-color="#229ED9"/>
</linearGradient>
</defs>
</svg>
