<svg width="38" height="38" viewBox="0 0 38 38" fill="none" xmlns="http://www.w3.org/2000/svg">
<path fill-rule="evenodd" clip-rule="evenodd" d="M2.79621 2.87013C0.17392 5.49241 0.17392 9.71289 0.17392 18.1539V19.6461C0.17392 28.0871 0.17392 32.3076 2.79621 34.9299C5.41849 37.5522 9.63897 37.5522 18.08 37.5522H19.5722C28.0132 37.5522 32.2337 37.5522 34.856 34.9299C37.4783 32.3076 37.4783 28.0872 37.4783 19.6461V18.1539C37.4783 9.7129 37.4783 5.49241 34.856 2.87013C32.2337 0.247841 28.0132 0.247841 19.5722 0.247841H18.08C9.63897 0.247841 5.41849 0.247841 2.79621 2.87013ZM6.46909 11.5948C6.67116 21.2939 11.5206 27.1227 20.0229 27.1227H20.5049V21.5737C23.6292 21.8845 25.9915 24.1694 26.9397 27.1227H31.3542C30.1418 22.7083 26.9552 20.268 24.9657 19.3354C26.9552 18.1852 29.7531 15.3874 30.4214 11.5948H26.4111C25.5407 14.6724 22.9608 17.4702 20.5049 17.7344V11.5948H16.4946V22.3508C14.0076 21.7291 10.8679 18.7137 10.728 11.5948H6.46909Z" fill="#0077FF"/>
</svg>
