<svg width="41" height="42" viewBox="0 0 41 42" fill="none" xmlns="http://www.w3.org/2000/svg">
<path d="M20.5109 41.3456C31.8027 41.3456 40.9565 32.1918 40.9565 20.9C40.9565 9.60821 31.8027 0.454346 20.5109 0.454346C9.21903 0.454346 0.0652161 9.60821 0.0652161 20.9C0.0652161 32.1918 9.21903 41.3456 20.5109 41.3456Z" fill="#FC3F1D"/>
<path d="M23.7678 33.7465H28.2912V8.05374H21.7776C15.2639 8.05374 11.8261 11.4915 11.8261 16.3768C11.8261 20.2926 13.6738 22.6592 16.9557 24.9439L11.1024 33.7465H15.9876L22.5013 23.976L20.1491 22.5285C17.4351 20.7192 15.9876 19.2717 15.9876 16.1958C15.9876 13.4818 17.9779 11.6724 21.5966 11.6724H23.5869L23.7678 33.7465Z" fill="white"/>
</svg>
