<svg width="15" height="16" viewBox="0 0 15 16" fill="none" xmlns="http://www.w3.org/2000/svg">
<path d="M6.9643 11.75H8.03569V8.5357H11.25V7.46431H8.03569V4.25001H6.9643V7.46431H3.75001V8.5357H6.9643V11.75ZM7.50707 15.5C6.47531 15.5 5.5036 15.3048 4.59195 14.9144C3.68028 14.524 2.88233 13.9869 2.19808 13.3029C1.51382 12.619 0.976411 11.8217 0.585846 10.911C0.195282 10.0004 0 9.02735 0 7.99194C0 6.95653 0.195193 5.98643 0.585579 5.08165C0.975964 4.17685 1.51312 3.38233 2.19705 2.69808C2.881 2.01382 3.6783 1.47641 4.58896 1.08585C5.49962 0.695283 6.47265 0.5 7.50806 0.5C8.54347 0.5 9.51357 0.695194 10.4184 1.08558C11.3231 1.47597 12.1177 2.01312 12.8019 2.69705C13.4862 3.381 14.0236 4.17669 14.4142 5.08414C14.8047 5.99159 15 6.96119 15 7.99293C15 9.02469 14.8048 9.9964 14.4144 10.9081C14.024 11.8197 13.4869 12.6177 12.8029 13.3019C12.119 13.9862 11.3233 14.5236 10.4159 14.9142C9.50841 15.3047 8.53881 15.5 7.50707 15.5Z" fill="#1E5D68"/>
</svg>
