<svg width="10" height="10" viewBox="0 0 10 10" fill="none" xmlns="http://www.w3.org/2000/svg">
<path d="M1.07143 10C0.776786 10 0.524554 9.89335 0.314732 9.68006C0.104911 9.46677 0 9.21627 0 8.92857V6.78571C0 6.49107 0.104911 6.23884 0.314732 6.02902C0.524554 5.8192 0.776786 5.71429 1.07143 5.71429H8.92857C9.21627 5.71429 9.46677 5.8192 9.68006 6.02902C9.89335 6.23884 10 6.49107 10 6.78571V8.92857C10 9.21627 9.89335 9.46677 9.68006 9.68006C9.46677 9.89335 9.21627 10 8.92857 10H1.07143ZM1.07143 4.28571C0.776786 4.28571 0.524554 4.17907 0.314732 3.96577C0.104911 3.75248 0 3.50198 0 3.21429V1.07143C0 0.776786 0.104911 0.524554 0.314732 0.314733C0.524554 0.104911 0.776786 0 1.07143 0H8.92857C9.21627 0 9.46677 0.104911 9.68006 0.314733C9.89335 0.524554 10 0.776786 10 1.07143V3.21429C10 3.50198 9.89335 3.75248 9.68006 3.96577C9.46677 4.17907 9.21627 4.28571 8.92857 4.28571H1.07143ZM8.92857 1.07143H1.07143V3.21429H8.92857V1.07143Z" fill="#515151"/>
</svg>
