<svg width="14" height="16" viewBox="0 0 14 16" fill="none" xmlns="http://www.w3.org/2000/svg">
<path d="M1.55556 15.5C1.12778 15.5 0.761574 15.3531 0.456944 15.0594C0.152315 14.7656 0 14.4125 0 14V3.5C0 3.0875 0.152315 2.73438 0.456944 2.44063C0.761574 2.14688 1.12778 2 1.55556 2H2.33333V0.5H3.88889V2H10.1111V0.5H11.6667V2H12.4444C12.8722 2 13.2384 2.14688 13.5431 2.44063C13.8477 2.73438 14 3.0875 14 3.5V14C14 14.4125 13.8477 14.7656 13.5431 15.0594C13.2384 15.3531 12.8722 15.5 12.4444 15.5H1.55556ZM1.55556 14H12.4444V6.5H1.55556V14ZM1.55556 5H12.4444V3.5H1.55556V5Z" fill="#1E5D68"/>
</svg>
