<svg width="14" height="14" viewBox="0 0 14 14" fill="none" xmlns="http://www.w3.org/2000/svg">
<mask id="mask0_720_2086" style="mask-type:alpha" maskUnits="userSpaceOnUse" x="0" y="0" width="14" height="14">
<rect width="14" height="14" fill="#D9D9D9"/>
</mask>
<g mask="url(#mask0_720_2086)">
<path d="M10.9 11.8333H4.3C4.00463 11.8333 3.74745 11.7255 3.52847 11.5098C3.30949 11.2942 3.2 11.0409 3.2 10.75V2.08333C3.2 1.79244 3.30949 1.53916 3.52847 1.3235C3.74745 1.10783 4.00463 1 4.3 1H9.06667L12 3.88889V10.75C12 11.0409 11.8905 11.2942 11.6715 11.5098C11.4525 11.7255 11.1954 11.8333 10.9 11.8333ZM8.33333 4.61111V2.08333H4.3V10.75H10.9V4.61111H8.33333ZM2.1 14C1.80463 14 1.54745 13.8922 1.32847 13.6765C1.10949 13.4608 1 13.2076 1 12.9167V4.61111H2.1V12.9167H9.06667V14H2.1Z" fill="#515151"/>
</g>
</svg>
