<svg width="10" height="10" viewBox="0 0 10 10" fill="none" xmlns="http://www.w3.org/2000/svg">
<path d="M1.07143 8.92857H1.83036L7.41071 3.34821L6.65179 2.58929L1.07143 8.16964V8.92857ZM0 10V7.72321L7.41071 0.3125C7.51984 0.203373 7.63808 0.124008 7.76542 0.0744048C7.89276 0.0248016 8.02669 0 8.1672 0C8.30772 0 8.44246 0.0248016 8.57143 0.0744048C8.7004 0.124008 8.81944 0.203373 8.92857 0.3125L9.6875 1.07143C9.79663 1.18056 9.87599 1.2996 9.9256 1.42857C9.9752 1.55754 10 1.6892 10 1.82354C10 1.96684 9.97509 2.10341 9.92527 2.23327C9.87546 2.36314 9.7962 2.48182 9.6875 2.58929L2.27679 10H0ZM7.0246 2.9754L6.65179 2.58929L7.41071 3.34821L7.0246 2.9754Z" fill="#515151"/>
</svg>
