<svg width="224" height="31" viewBox="0 0 224 31" fill="none" xmlns="http://www.w3.org/2000/svg">
<path d="M97.8044 17.1467V23.885H93.7556V9.42503H97.3706L97.7465 11.7097C98.9612 10.0323 100.783 8.99122 102.923 8.99122C105.786 8.99122 108.071 10.5529 109.228 13.0979C110.356 10.5818 112.525 8.99122 115.185 8.99122C119.35 8.99122 122.329 12.317 122.329 17.1467V23.885H118.28V17.1467C118.28 14.5439 116.573 12.7219 114.144 12.7219C111.715 12.7219 110.066 14.5439 110.066 17.1467V23.885H106.018V17.1467C106.018 14.5439 104.311 12.7219 101.882 12.7219C99.4528 12.7219 97.8044 14.5439 97.8044 17.1467ZM125.083 16.684C125.083 12.2592 128.843 8.99122 133.933 8.99122C139.081 8.99122 142.811 12.0857 142.811 16.684C142.811 21.1955 139.081 24.3188 133.933 24.3188C128.872 24.3188 125.083 21.0509 125.083 16.684ZM129.132 16.684C129.132 18.9397 131.186 20.5592 133.933 20.5592C136.825 20.5592 138.763 18.9397 138.763 16.684C138.763 14.3704 136.825 12.7219 133.933 12.7219C131.157 12.7219 129.132 14.3704 129.132 16.684ZM149.657 17.1467V23.885H145.608V9.42503H149.223L149.628 11.7965C150.901 10.0613 152.809 8.99122 155.065 8.99122C159.403 8.99122 162.44 12.317 162.44 17.1467V23.885H158.391V17.1467C158.391 14.5439 156.54 12.7219 153.966 12.7219C151.392 12.7219 149.657 14.5439 149.657 17.1467ZM182.482 17.6672H169.352C169.786 19.7495 171.637 21.1376 174.066 21.1376C175.801 21.1376 177.189 20.5014 177.941 19.4603H182.048C180.949 22.4101 177.854 24.3188 173.892 24.3188C168.918 24.3188 165.187 21.0509 165.187 16.684C165.187 12.2592 168.889 8.99122 173.892 8.99122C178.838 8.99122 182.539 12.0857 182.539 16.684C182.539 17.0021 182.539 17.3491 182.482 17.6672ZM169.352 15.6428H178.375C177.97 13.5895 176.264 12.2592 173.892 12.2592C171.55 12.2592 169.786 13.6184 169.352 15.6428ZM189.366 17.1467V23.885H185.317V9.42503H188.932L189.337 11.7965C190.609 10.0613 192.518 8.99122 194.774 8.99122C199.112 8.99122 202.148 12.317 202.148 17.1467V23.885H198.099V17.1467C198.099 14.5439 196.249 12.7219 193.675 12.7219C191.101 12.7219 189.366 14.5439 189.366 17.1467ZM222.19 17.6672H209.06C209.494 19.7495 211.345 21.1376 213.774 21.1376C215.51 21.1376 216.898 20.5014 217.65 19.4603H221.756C220.657 22.4101 217.563 24.3188 213.601 24.3188C208.627 24.3188 204.896 21.0509 204.896 16.684C204.896 12.2592 208.598 8.99122 213.601 8.99122C218.546 8.99122 222.248 12.0857 222.248 16.684C222.248 17.0021 222.248 17.3491 222.19 17.6672ZM209.06 15.6428H218.083C217.679 13.5895 215.972 12.2592 213.601 12.2592C211.258 12.2592 209.494 13.6184 209.06 15.6428Z" fill="#1E5D68"/>
<path d="M14.4677 29.1649H9.40671C4.45536 29.1649 0.441498 25.1511 0.441498 20.1997V2.78171C0.441498 2.16919 0.919785 1.66071 1.53202 1.64202C13.2395 1.28453 19.6702 6.6123 30.2291 15.4279V2.80774C30.2291 2.18468 30.7464 1.67117 31.3694 1.66542C55.9873 1.43826 55.0054 22.8603 72.1137 29.3076C72.7784 29.5582 72.6354 30.9371 71.9265 30.8908C60.2183 30.1256 53.8592 25.401 45.7013 18.6091V29.7245C45.7013 30.3707 45.1702 30.892 44.5241 30.8778C31.177 30.5837 24.2644 28.9656 15.6245 20.7781V28.0081C15.6245 28.647 15.1066 29.1649 14.4677 29.1649Z" fill="#1E5D68"/>
<path d="M70.7172 0.703857L72.1568 8.51862L79.9716 9.95827L72.1568 11.3979L70.7172 19.2127L69.2775 11.3979L61.4628 9.95827L69.2775 8.51862L70.7172 0.703857Z" fill="#1E5D68"/>
</svg>
