<svg width="40" height="40" viewBox="0 0 40 40" fill="none" xmlns="http://www.w3.org/2000/svg">
<rect x="0.5" y="0.5" width="39" height="39" rx="13.5" stroke="#DFE2E8"/>
<path d="M22 14H16V25H22V14Z" fill="#FF5F00"/>
<path d="M18.1673 20C18.1662 18.94 18.4207 17.8936 18.9115 16.9401C19.4023 15.9867 20.1165 15.1511 21 14.4966C19.9059 13.6849 18.5919 13.1801 17.2082 13.04C15.8245 12.8998 14.4269 13.1299 13.1752 13.7039C11.9235 14.278 10.8682 15.1728 10.1299 16.2862C9.39153 17.3996 9 18.6865 9 20C9 21.3135 9.39153 22.6004 10.1299 23.7138C10.8682 24.8272 11.9235 25.722 13.1752 26.2961C14.4269 26.8701 15.8245 27.1002 17.2082 26.96C18.5919 26.8199 19.9059 26.3151 21 25.5034C20.1165 24.8489 19.4023 24.0133 18.9115 23.0599C18.4208 22.1064 18.1662 21.06 18.1673 20Z" fill="#EB001B"/>
<path d="M30 20C30 21.3134 29.6412 22.6004 28.9644 23.7138C28.2876 24.8271 27.3202 25.722 26.1728 26.296C25.0254 26.8701 23.7443 27.1002 22.4759 26.96C21.2075 26.8199 20.0029 26.3151 19 25.5034C19.8092 24.8483 20.4634 24.0125 20.9132 23.0592C21.363 22.1059 21.5967 21.0599 21.5967 20C21.5967 18.9401 21.363 17.8941 20.9132 16.9408C20.4634 15.9875 19.8092 15.1517 19 14.4966C20.0029 13.6849 21.2075 13.1801 22.4759 13.04C23.7443 12.8998 25.0254 13.1299 26.1728 13.704C27.3202 14.278 28.2876 15.1729 28.9644 16.2862C29.6412 17.3996 30 18.6866 30 20Z" fill="#F79E1B"/>
<path d="M30.2383 24.2717V24.0464H30.3923V24.0004H30V24.0464H30.1541V24.2717H30.2383ZM31 24.2717V24H30.8797L30.7414 24.1869L30.603 24H30.4827V24.2717H30.5676V24.0668L30.6974 24.2434H30.7854L30.9151 24.0663V24.2717H31Z" fill="#F79E1B"/>
</svg>
