<svg width="10" height="12" viewBox="0 0 10 12" fill="none" xmlns="http://www.w3.org/2000/svg">
<path d="M0.31 8.89H1.645V7.72H0.31V6.25H1.645V0.895H5.5C6.09 0.895 6.625 0.955 7.105 1.075C7.585 1.185 7.995 1.375 8.335 1.645C8.675 1.905 8.935 2.25 9.115 2.68C9.305 3.11 9.4 3.64 9.4 4.27C9.4 4.3 9.4 4.325 9.4 4.345C9.4 4.865 9.3 5.345 9.1 5.785C8.9 6.225 8.625 6.59 8.275 6.88C7.925 7.16 7.505 7.37 7.015 7.51C6.525 7.65 5.995 7.72 5.425 7.72H3.385V8.89H6.4V10.27H3.385V11.5H1.645V10.27H0.31V8.89ZM5.35 6.25C5.67 6.25 5.965 6.215 6.235 6.145C6.515 6.075 6.76 5.965 6.97 5.815C7.18 5.665 7.345 5.47 7.465 5.23C7.595 4.99 7.665 4.695 7.675 4.345C7.675 3.975 7.625 3.67 7.525 3.43C7.425 3.18 7.275 2.985 7.075 2.845C6.885 2.695 6.65 2.595 6.37 2.545C6.09 2.485 5.765 2.455 5.395 2.455H3.385V6.25H5.35Z" fill="#1E5D68"/>
</svg>
