<svg width="12" height="11" viewBox="0 0 12 11" fill="none" xmlns="http://www.w3.org/2000/svg">
<path d="M5.25549 0.475418C5.53093 -0.158472 6.46907 -0.158473 6.74451 0.475417L7.81035 2.92831C7.92647 3.19555 8.18902 3.37813 8.49042 3.40126L11.257 3.61356C11.9719 3.66842 12.2618 4.52245 11.7171 4.96908L9.60928 6.69735C9.37965 6.88564 9.27936 7.18107 9.34952 7.4626L9.99349 10.0467C10.1599 10.7145 9.40094 11.2423 8.78885 10.8845L6.42031 9.49969C6.16227 9.34883 5.83773 9.34883 5.57969 9.49969L3.21115 10.8845C2.59906 11.2423 1.8401 10.7145 2.00651 10.0467L2.65048 7.4626C2.72064 7.18107 2.62036 6.88564 2.39072 6.69735L0.282911 4.96908C-0.2618 4.52245 0.0280989 3.66842 0.743041 3.61356L3.50958 3.40126C3.81098 3.37813 4.07353 3.19555 4.18965 2.92831L5.25549 0.475418Z" fill="#1E5D68"/>
</svg>
