<svg width="10" height="10" viewBox="0 0 10 10" fill="none" xmlns="http://www.w3.org/2000/svg">
<path d="M1.07143 0C0.776786 0 0.524554 0.106647 0.314732 0.31994C0.104911 0.533234 0 0.78373 0 1.07143V3.21429C0 3.50893 0.104911 3.76116 0.314732 3.97098C0.524554 4.1808 0.776786 4.28571 1.07143 4.28571H8.92857C9.21627 4.28571 9.46677 4.1808 9.68006 3.97098C9.89335 3.76116 10 3.50893 10 3.21429V1.07143C10 0.78373 9.89335 0.533234 9.68006 0.31994C9.46677 0.106647 9.21627 0 8.92857 0H1.07143ZM1.07143 5.71429C0.776786 5.71429 0.524554 5.82093 0.314732 6.03423C0.104911 6.24752 0 6.49802 0 6.78571V8.92857C0 9.22321 0.104911 9.47545 0.314732 9.68527C0.524554 9.89509 0.776786 10 1.07143 10H8.92857C9.21627 10 9.46677 9.89509 9.68006 9.68527C9.89335 9.47545 10 9.22321 10 8.92857V6.78571C10 6.49802 9.89335 6.24752 9.68006 6.03423C9.46677 5.82093 9.21627 5.71429 8.92857 5.71429H1.07143ZM8.92857 8.92857H1.07143V6.78571H8.92857V8.92857Z" fill="#515151"/>
</svg>
